# xmcd CD database file
#
# Track frame offsets:
#	150
#	14155
#	31238
#	46926
#	61224
#	77639
#	100186
#	119432
#	134497
#	152782
#	168523
#	183941
#	205923
#	220973
#	233262
#	250453
#
# Disc length: 3644 seconds
#
# Revision: 0
# Processed by: cddbd v1.5.2PL0 Copyright (c) Steve Scherf et al.
# Submitted via: CDex 1.79
#
DISCID=d90e3a10
DTITLE=Raphael Gualazzi - Happy Mistake
DYEAR=2014
DGENRE=Jazz
TTITLE0=Baby What's Wrong
TTITLE1=Don't Call My Name
TTITLE2=Un Mare Di Luce
TTITLE3=L'Amie D'Un Italien (Rainbows)
TTITLE4=Senza Ritegno
TTITLE5=Questa O Quella Per Me Pari Non Sono
TTITLE6=Seventy Days Of Love
TTITLE7=I'm Tired 
TTITLE8=Sai (Ci Basta Un Sogno)
TTITLE9=Welcome To My Hell
TTITLE10=Mambo Soul
TTITLE11=Improvvisazione Sui Temi Di Amarcord
TTITLE12=Il Mare Edit Version
TTITLE13=Legba
TTITLE14=Svalutation
TTITLE15=Beautiful
EXTD=YEAR: 2014
EXTT0=
EXTT1=
EXTT2=
EXTT3=
EXTT4=
EXTT5=
EXTT6=
EXTT7=
EXTT8=
EXTT9=
EXTT10=
EXTT11=
EXTT12=
EXTT13=
EXTT14=
EXTT15=
PLAYORDER=
